<svg width="124" height="43" viewBox="0 0 124 43" fill="none" xmlns="http://www.w3.org/2000/svg">
<path d="M18.1439 42.3025V42.3206C18.109 42.3757 18.0747 42.4313 18.0386 42.4863C17.9646 42.6073 17.887 42.7246 17.8075 42.8492C17.7798 42.8927 17.7516 42.9345 17.7227 42.9774C17.7257 42.8752 17.7257 42.7784 17.7227 42.6853V42.6811C17.6727 40.5172 16.32 40.1652 15.0231 37.6009C14.9798 37.515 14.9377 37.4279 14.8938 37.3372C14.8896 37.3977 14.8877 37.4582 14.8877 37.5247C14.8877 37.6118 14.8932 37.6995 14.9016 37.7884C14.9269 38.0386 14.9765 38.2857 15.0496 38.5262C15.0497 38.528 15.0497 38.5298 15.0496 38.5317C15.0893 38.6641 15.1351 38.7984 15.185 38.9338C15.1694 38.9227 15.1522 38.9141 15.1339 38.9084L15.1038 38.9024C13.7342 38.6121 13.0349 37.5277 12.4379 36.1337C12.3519 35.9353 12.2695 35.7315 12.1876 35.5217C12.1846 35.5144 12.1816 35.5065 12.1274 35.4993L12.1876 35.6735V37.6088C12.1876 37.6088 10.1151 32.7366 9.53983 31.0596C9.45324 30.8094 9.27478 30.6019 9.04097 30.4796C8.55955 30.225 8.02578 29.9631 7.44628 29.6141L7.34639 29.5537C5.88048 28.6465 4.66611 27.3728 3.66597 25.9776C3.16771 25.2827 2.73624 24.5437 2.25362 23.8433C1.75415 23.1083 1.25469 22.3763 0.755219 21.6474C0.572683 21.3776 0.388943 21.1077 0.203999 20.8375C0.178725 20.8001 0.0475397 20.5424 0 20.5352C0 20.5352 0.108318 20.5485 0.300884 20.56C0.38164 20.5853 0.464686 20.6025 0.548813 20.6114L0.696246 20.6337L0.858122 20.6591C1.32088 20.7305 1.93709 20.8345 2.6207 20.9688L2.74587 20.993C2.76151 20.996 2.77776 21.0002 2.79521 21.0033L2.93181 21.0311C3.34042 21.1151 3.76887 21.2125 4.19553 21.3147L4.28158 21.3365L4.42781 21.3728L4.44406 21.377C4.4934 21.3891 4.54335 21.4024 4.5927 21.4157C5.15655 21.5603 5.71921 21.7248 6.26681 21.9237C6.77772 22.1094 6.88844 22.3549 7.16405 22.2908C7.33917 22.2497 7.53655 22.1094 7.59913 22.179C7.62139 22.2031 7.60695 22.2346 7.63584 22.4535C7.64065 22.4916 7.64366 22.5104 7.64486 22.5182C7.68338 22.6924 8.04745 22.7728 8.10341 22.7862C8.29056 22.8297 8.52465 23.0281 9.00125 23.4182C9.77272 24.0508 10.1446 25.2392 10.283 26.2437C10.1611 27.4509 10.4021 28.6671 10.9749 29.7353C11.5477 30.8035 12.4261 31.6745 13.4965 32.2359C13.6987 32.3375 13.896 32.4385 14.0898 32.5383C14.15 32.5697 14.2102 32.6024 14.2733 32.6344C19.2837 35.2392 21.1395 37.2296 18.1439 42.3025Z" fill="#0063F7"/>
<path d="M5.63565 21.4279L5.60376 21.4382L5.6519 21.4219L5.63565 21.4279Z" fill="#14364A"/>
<path d="M14.9016 37.6348L14.9082 37.6523L14.8276 37.6396L14.7969 37.6348H14.9016Z" fill="#14364A"/>
<path d="M14.9186 37.6339H14.9015L14.8962 37.6191C14.9092 37.6268 14.9186 37.6339 14.9186 37.6339Z" fill="#14364A"/>
<path d="M24.0449 26.0412C23.8595 26.2481 23.5779 26.5535 23.2054 26.9079C15.7982 27.6874 12.6745 24.7663 13.2762 21.4648C13.1914 22.0962 13.3015 22.7349 13.7137 23.2562C15.7122 25.7957 22.5302 26.464 24.0449 26.0412Z" fill="#0063F7"/>
<path d="M9.25101 20.2646C9.17078 20.4098 9.09174 20.5493 9.01392 20.6831L9.24861 20.2598L9.25101 20.2646Z" fill="url(#paint0_linear_135_964)"/>
<path d="M42.7406 3.59592C42.7406 3.59592 38.8002 8.45171 36.0609 8.13904L33.7381 11.723C33.76 11.8049 33.7757 11.8884 33.7851 11.9728H33.9421C33.9761 11.9719 34.0095 11.9825 34.0369 12.0027C34.0643 12.023 34.0843 12.0518 34.0938 12.0846C34.0996 12.1071 34.1003 12.1306 34.0958 12.1533C34.0912 12.176 34.0815 12.1974 34.0675 12.2158C34.0534 12.2342 34.0354 12.2491 34.0147 12.2594C33.994 12.2697 33.9712 12.2751 33.9481 12.2751H33.8013C33.7959 12.7934 33.5985 13.5319 32.5833 13.7907V13.9286C32.5842 13.9628 32.5737 13.9962 32.5536 14.0237C32.5334 14.0512 32.5047 14.0712 32.472 14.0804C32.4497 14.0865 32.4263 14.0872 32.4036 14.0827C32.3809 14.0782 32.3596 14.0685 32.3412 14.0543C32.3229 14.0402 32.308 14.0219 32.2979 14.0011C32.2877 13.9802 32.2824 13.9573 32.2824 13.9341V13.8887C32.0831 13.9171 31.8819 13.9296 31.6807 13.9262L27.4009 15.7194C27.2943 15.7648 27.1847 15.803 27.0729 15.8337C23.3582 16.8721 23.5712 15.4025 21.5475 14.2074C21.5057 14.1777 21.456 14.1613 21.4049 14.1602C21.3537 14.1591 21.3034 14.1735 21.2604 14.2014C20.2001 14.9211 19.2229 17.5198 19.7013 18.4984C19.7908 18.6711 19.8408 18.8619 19.8475 19.0566C19.8505 19.3529 19.8192 19.671 19.824 19.9946C19.8251 20.0693 19.8536 20.1411 19.9042 20.1959C19.9548 20.2507 20.0237 20.2848 20.0978 20.2915C25.8664 20.9005 28.9697 22.5359 29.536 23.9523C29.5769 24.0543 29.6033 24.1616 29.6142 24.271C30.2087 29.2502 21.7563 34.3745 14.1325 32.4162C14.0826 32.4041 14.0338 32.3908 13.9851 32.3775C13.822 32.3333 13.6589 32.2868 13.4964 32.236C12.427 31.6746 11.5495 30.804 10.977 29.7366C10.4045 28.6692 10.1634 27.4539 10.2848 26.2474C10.2984 26.349 10.3099 26.4482 10.3191 26.545C10.3221 26.577 10.3257 26.6085 10.3281 26.6387C10.3341 26.6907 10.3384 26.7427 10.342 26.7948C10.3775 27.2254 10.3895 27.6511 10.4768 28.0696C10.4858 28.1156 10.496 28.1622 10.5081 28.2081C10.5084 28.2118 10.5084 28.2154 10.5081 28.219C10.5081 28.219 10.5081 28.222 10.5081 28.2245V28.2281C10.5183 28.2662 10.5279 28.3049 10.5405 28.3424L10.5454 28.3599C10.5634 28.4204 10.5851 28.4809 10.6055 28.5414C10.6248 28.5904 10.6441 28.6393 10.6657 28.6883C10.6874 28.7373 10.7109 28.7911 10.7361 28.8407C10.7789 28.9296 10.8258 29.0149 10.8763 29.0996C10.8992 29.1371 10.9227 29.1752 10.9473 29.2103C10.9488 29.2119 10.95 29.2137 10.951 29.2157C10.9702 29.2453 10.9895 29.2762 11.0111 29.3022C11.0412 29.3457 11.0713 29.3887 11.1074 29.4304C11.1471 29.4824 11.1893 29.5332 11.2338 29.5822C11.3079 29.6647 11.3869 29.7426 11.4703 29.8156C11.5046 29.8459 11.5389 29.8761 11.5744 29.9027C11.6099 29.9293 11.6424 29.9559 11.6779 29.9813C11.9467 30.1666 12.2457 30.3031 12.5613 30.3847C12.5944 30.3944 12.6281 30.4041 12.6624 30.412C13.5049 30.6248 14.4851 30.5934 15.2458 30.5619C19.9925 30.3478 23.1434 27.0711 24.037 26.0714C22.5224 26.4948 15.7037 25.8259 13.7101 23.2894C12.8832 22.2383 13.2684 20.7385 14.0152 19.7273C14.4707 19.1104 15.0701 18.5425 15.5286 17.928C16.2989 17.1116 16.4914 15.4926 15.7037 13.8016C15.6279 13.5416 15.5449 13.2833 15.4576 13.0263C15.407 12.8799 15.3555 12.7344 15.3029 12.5896C15.2921 12.5616 15.2799 12.5341 15.2662 12.5074C15.2558 12.4858 15.2391 12.468 15.2183 12.4563C15.1976 12.4446 15.1737 12.4396 15.15 12.4419C15.1263 12.4442 15.1038 12.4537 15.0857 12.4692C15.0675 12.4847 15.0545 12.5054 15.0484 12.5285C13.5151 16.5945 11.9758 19.0644 9.78473 21.0729C9.4453 21.5361 9.05933 21.9629 8.63295 22.3466C8.45241 22.5087 8.27188 22.655 8.09737 22.7881C7.76556 23.04 7.41534 23.2664 7.04969 23.4654C6.94799 23.5096 6.86014 23.4836 6.84148 23.4382C6.82283 23.3929 6.86254 23.3481 6.86976 23.339L7.55337 22.4766C7.10445 22.2855 6.59776 22.7246 5.64517 23.1122C5.62997 23.1143 5.61452 23.1114 5.60102 23.1041C5.58752 23.0968 5.57666 23.0854 5.56999 23.0715C5.56332 23.0577 5.56118 23.042 5.56388 23.0268C5.56657 23.0117 5.57396 22.9977 5.58499 22.987L6.42325 22.1966L6.00201 22.2202C5.9925 22.2206 5.9831 22.2179 5.97514 22.2127C5.96718 22.2074 5.96104 22.1998 5.9576 22.1909C5.95415 22.182 5.95357 22.1722 5.95592 22.1629C5.95827 22.1536 5.96345 22.1453 5.97072 22.1391C6.06941 22.0605 6.17051 21.9886 6.27161 21.922C7.04548 21.4195 7.88374 21.2483 8.35974 21.1908C8.48403 21.1755 8.60294 21.1309 8.70679 21.0606C8.81064 20.9902 8.89648 20.8962 8.9573 20.7862L8.98558 20.7354L9.01687 20.6798C9.09711 20.5459 9.17614 20.4064 9.25397 20.2613C10.9931 17.0874 12.8489 11.3946 13.0192 10.8672C12.9344 10.5285 12.8387 10.1511 12.8387 10.1511L13.4796 7.82455L15.7013 6.41057L17.0715 4.88471L19.2439 3.21007L20.8242 3.04859L21.775 3.12298L21.8195 3.15261L21.7906 3.27357L21.6101 3.42416C21.6785 3.38482 21.7395 3.33387 21.7906 3.27357C21.6943 3.41509 21.568 3.52637 21.456 3.70962C21.2872 3.99879 21.2014 4.32934 21.2081 4.66457C21.2123 4.83243 21.2764 4.99319 21.3886 5.11755C21.4866 5.25268 21.5734 5.39569 21.648 5.54513C21.6516 5.55348 21.6531 5.56262 21.6523 5.5717C21.6515 5.58078 21.6484 5.58952 21.6434 5.5971C21.6384 5.60469 21.6315 5.61088 21.6235 5.61511C21.6155 5.61935 21.6065 5.62149 21.5974 5.62133H21.2562C21.2222 5.62049 21.1892 5.63294 21.1642 5.65607C21.1392 5.6792 21.1241 5.7112 21.122 5.74531L21.0908 6.08399C21.0908 6.08399 21.1359 6.35675 21.054 6.45835C20.9722 6.55995 20.8248 6.55633 20.7291 6.63555C20.5612 6.77223 20.64 7.05467 20.5317 7.24033C20.4438 7.39092 20.2495 7.44838 20.0768 7.43024C19.9041 7.41209 19.7446 7.33589 19.5827 7.2742C19.2605 7.15266 18.9189 7.09117 18.5748 7.09277C18.4039 8.39305 18.7041 8.98029 19.0122 9.27724C19.3492 9.59898 19.7632 9.69454 20.7574 10.3912C21.4891 10.9047 21.592 11.2295 22.683 12.4475C23.0842 12.8979 23.4994 13.3351 23.9287 13.7593C24.2332 14.0617 24.5088 14.2824 24.9595 14.2903C25.4451 14.2987 25.9392 14.1258 26.423 14.0732C26.9568 14.0127 27.493 13.9637 28.0273 13.9002C28.5491 13.8397 29.0708 13.7665 29.5859 13.6625C29.8519 13.6099 30.1167 13.5488 30.3784 13.4768C30.4693 13.4527 31.0921 13.3257 31.1114 13.2452C31.4291 11.9014 32.0742 11.4532 33.2007 11.2652L35.6469 7.80641C34.8351 5.32197 34.3609 3.09576 34.7551 1.90676C34.7693 1.87149 34.7943 1.8416 34.8263 1.82135C34.8584 1.80109 34.896 1.79149 34.9338 1.7939C34.9716 1.79631 35.0077 1.8106 35.037 1.83477C35.0662 1.85893 35.0872 1.89173 35.0969 1.92853C35.3978 6.28296 38.2405 4.05374 37.0539 0.556283C37.0461 0.523216 37.0483 0.488594 37.06 0.456735C37.0717 0.424876 37.0925 0.39719 37.1198 0.377131C37.147 0.357073 37.1796 0.345529 37.2133 0.343939C37.2471 0.34235 37.2806 0.350786 37.3096 0.368195L42.7406 3.59592Z" fill="#0063F7"/>
<path d="M21.7906 3.28835C21.7906 3.28835 21.7906 3.29137 21.7876 3.29319C21.7029 3.39387 21.5914 3.46833 21.4663 3.50788C21.2857 3.56836 21.1293 3.50788 20.9415 3.49337C20.6867 3.47566 20.4307 3.4979 20.1827 3.55929C19.7085 3.67238 19.268 3.89555 18.8335 4.11267C18.0428 4.50638 17.2689 5.01379 16.7039 5.70264C16.4183 6.0509 16.1728 6.43049 15.9721 6.83419C15.8241 7.12871 15.5701 7.49945 15.2759 7.66395C15.1609 7.72805 15.0442 7.78127 14.9287 7.83449C14.008 8.25784 13.559 9.06583 13.26 9.9978C13.1083 10.4701 13.1829 10.4133 13.0668 10.7332C13.0524 10.7725 13.0319 10.8257 13.0066 10.8911C12.8562 11.2588 12.4921 11.9797 11.7122 12.472C11.3704 12.6861 10.4834 13.2449 9.55186 12.8838C8.95551 12.6516 8.63838 12.1581 8.51682 11.9385C8.70638 12.0129 9.91052 12.4732 10.3516 11.9948C10.8806 11.4202 10.5117 9.70448 9.26422 9.47466C8.31403 9.20372 6.5003 10.0486 5.83414 12.5657C5.83894 12.5231 5.83894 12.4801 5.83414 12.4375C5.80766 11.185 5.73365 9.92341 5.74508 8.67212C5.75471 7.53573 6.82826 6.36064 7.8633 6.01773C5.79563 5.53693 4.47234 7.15109 4.37305 7.33313C4.9032 3.50063 7.45952 4.25298 10.9504 4.47191C10.9504 4.47191 10.5839 4.06247 10.3275 3.32282C10.2036 2.96061 10.1541 2.5769 10.1819 2.1949C10.7006 2.86016 11.4878 3.6367 12.447 3.6367C14.3125 3.6367 14.7854 0.91095 17.2009 0.142877C19.0381 -0.350625 21.3856 0.483974 21.8574 1.88223C21.9144 2.01331 21.9549 2.15107 21.9778 2.29227C21.9783 2.29404 21.9783 2.29594 21.9778 2.29772L21.9946 2.42593C22.0247 2.74223 21.9742 3.06821 21.7906 3.28835Z" fill="#0063F7"/>
<path d="M41.0696 28.8465L37.712 20.5633L35.7021 28.3703C35.625 28.6926 35.4383 28.978 35.1739 29.1777C34.9041 29.3852 34.5719 29.4947 34.2317 29.4883C34.0357 29.4892 33.8414 29.4512 33.6601 29.3765C33.4789 29.3019 33.3142 29.1921 33.1756 29.0535C33.037 28.9149 32.9272 28.7502 32.8525 28.5689C32.7779 28.3877 32.7399 28.1934 32.7408 27.9974C32.7382 27.8365 32.7591 27.676 32.803 27.5212L36.4889 15.1586C36.6267 14.7018 36.9313 14.4734 37.4026 14.4734C37.8441 14.4734 38.1487 14.6873 38.3162 15.1152L41.9816 24.0802L45.6469 15.1152C45.8125 14.6873 46.1161 14.4734 46.5577 14.4734C47.0271 14.4734 47.3316 14.7018 47.4713 15.1586L51.1573 27.5212C51.2008 27.6761 51.2218 27.8365 51.2195 27.9974C51.2203 28.1934 51.1823 28.3877 51.1077 28.5689C51.0331 28.7502 50.9233 28.9149 50.7847 29.0535C50.6461 29.1921 50.4814 29.3019 50.3001 29.3765C50.1188 29.4512 49.9246 29.4892 49.7286 29.4883C49.3884 29.4947 49.0561 29.3852 48.7864 29.1777C48.522 28.978 48.3352 28.6926 48.2582 28.3703L46.2436 20.5633L42.8895 28.8465C42.7235 29.2607 42.419 29.4678 41.9758 29.4678C41.5327 29.4678 41.2307 29.2607 41.0696 28.8465Z" fill="#0063F7"/>
<path d="M61.8771 25.2021H55.3333C55.4989 25.7754 55.8164 26.2156 56.2857 26.5228C56.7551 26.83 57.3004 26.9834 57.9217 26.9831C58.7778 26.9831 59.4682 26.7276 59.9928 26.2168C60.3377 25.8993 60.6896 25.7405 61.0486 25.7405C61.2176 25.739 61.3853 25.7712 61.5418 25.8352C61.6982 25.8992 61.8404 25.9937 61.9599 26.1133C62.0794 26.2329 62.1739 26.3751 62.2378 26.5315C62.3017 26.688 62.3339 26.8557 62.3323 27.0248C62.3363 27.1871 62.3072 27.3485 62.2467 27.4993C62.1862 27.65 62.0956 27.7867 61.9805 27.9013C60.9591 28.9592 59.5855 29.4883 57.8595 29.4887C56.3413 29.4887 55.0645 29.002 54.0291 28.0286C52.9936 27.0552 52.4759 25.8439 52.4759 24.3946C52.4759 22.9591 52.9866 21.7512 54.0079 20.771C55.0293 19.7907 56.2718 19.3008 57.7355 19.3011C59.1441 19.3011 60.3417 19.7671 61.3284 20.699C62.3151 21.6309 62.85 22.7802 62.933 24.1468C62.9467 24.4643 62.857 24.7195 62.664 24.9126C62.471 25.1056 62.2087 25.2021 61.8771 25.2021ZM55.3955 23.2349H60.2412C60.103 22.7655 59.8095 22.3963 59.3607 22.1271C58.9118 21.858 58.3909 21.7234 57.7978 21.7234C57.2818 21.7209 56.7756 21.8644 56.3377 22.1374C55.9104 22.3884 55.5789 22.7745 55.3955 23.2349Z" fill="#0063F7"/>
<path d="M66.9224 20.667C67.584 19.7564 68.4399 19.3011 69.4902 19.3011C69.6149 19.2995 69.7394 19.3064 69.8631 19.3217C70.2362 19.3769 70.5365 19.5219 70.7642 19.7568C70.8751 19.8681 70.9626 20.0006 71.0214 20.1463C71.0803 20.2921 71.1093 20.4482 71.1068 20.6053C71.1099 20.7752 71.0794 20.9441 71.0172 21.1022C70.955 21.2603 70.8622 21.4047 70.7442 21.5269C70.6299 21.6511 70.4905 21.7495 70.3352 21.8156C70.18 21.8816 70.0124 21.9139 69.8437 21.9101C69.746 21.9045 69.649 21.8908 69.5536 21.869C69.3491 21.8277 69.141 21.8068 68.9324 21.8067C68.2829 21.8067 67.7859 22.0517 67.4414 22.5416C67.0969 23.0316 66.9243 23.677 66.9235 24.478V28.1222C66.9235 28.4846 66.7795 28.8322 66.5233 29.0884C66.267 29.3447 65.9195 29.4887 65.5571 29.4887C65.1947 29.4887 64.8471 29.3447 64.5908 29.0884C64.3346 28.8322 64.1906 28.4846 64.1906 28.1222V20.667C64.1906 20.3046 64.3346 19.957 64.5908 19.7008C64.8471 19.4445 65.1947 19.3005 65.5571 19.3005C65.9195 19.3005 66.267 19.4445 66.5233 19.7008C66.7795 19.957 66.9235 20.3046 66.9235 20.667H66.9224Z" fill="#0063F7"/>
<path d="M84.7875 28.1205V23.5256C84.7875 22.9736 84.6253 22.5284 84.3009 22.1899C83.9766 21.8515 83.559 21.6823 83.0481 21.6823C82.5532 21.6823 82.1391 21.8445 81.8056 22.1688C81.4721 22.4931 81.3065 22.9178 81.3088 23.4428V28.1251C81.3015 28.4828 81.1543 28.8233 80.8988 29.0736C80.6433 29.324 80.2998 29.4642 79.9421 29.4642C79.5844 29.4642 79.2409 29.324 78.9854 29.0736C78.7299 28.8233 78.5826 28.4828 78.5753 28.1251V23.5256C78.5753 22.9736 78.4132 22.5284 78.0888 22.1899C77.7645 21.8515 77.3469 21.6823 76.836 21.6823C76.3251 21.6823 75.9075 21.8515 75.5832 22.1899C75.2589 22.5284 75.0965 22.9736 75.0961 23.5256V28.1223C75.0961 28.4847 74.9521 28.8322 74.6959 29.0885C74.4396 29.3447 74.0921 29.4887 73.7297 29.4887C73.3673 29.4887 73.0197 29.3447 72.7634 29.0885C72.5072 28.8322 72.3632 28.4847 72.3632 28.1223V20.6659C72.3632 20.3035 72.5072 19.9559 72.7634 19.6997C73.0197 19.4434 73.3673 19.2994 73.7297 19.2994C74.0921 19.2994 74.4396 19.4434 74.6959 19.6997C74.9521 19.9559 75.0961 20.3035 75.0961 20.6659C75.7863 19.7553 76.7321 19.3 77.9335 19.3C78.5054 19.2947 79.069 19.4373 79.5695 19.714C80.0599 19.9851 80.4727 20.3773 80.7686 20.8532C81.6396 19.8177 82.7653 19.3 84.1456 19.3C85.0973 19.3 85.8981 19.6278 86.5479 20.2833C87.1977 20.9388 87.5213 21.8053 87.5186 22.8826V28.1211C87.5113 28.4788 87.3641 28.8193 87.1086 29.0696C86.8531 29.32 86.5096 29.4602 86.1519 29.4602C85.7942 29.4602 85.4507 29.32 85.1952 29.0696C84.9397 28.8193 84.7925 28.4788 84.7852 28.1211L84.7875 28.1205Z" fill="#0063F7"/>
<path d="M91.7233 29.251L91.7245 29.2515C92.3403 29.5099 92.9967 29.6386 93.6923 29.6386C94.3432 29.6386 94.9159 29.4895 95.4045 29.1857C95.7553 28.9674 96.0539 28.6981 96.2995 28.3783C96.3595 28.9561 96.8473 29.4006 97.4342 29.4006C98.0643 29.4006 98.5751 28.8898 98.5751 28.2597V21.0249C98.5751 20.4283 98.0915 19.9447 97.495 19.9447C96.9044 19.9447 96.4297 20.4172 96.4152 20.9963C96.1208 20.6714 95.7765 20.3949 95.3829 20.1669C94.8465 19.8464 94.229 19.6884 93.5354 19.6884C92.8579 19.6884 92.2195 19.8173 91.6218 20.076C91.0327 20.3275 90.5126 20.6768 90.0623 21.1236C89.6116 21.5709 89.2594 22.0938 89.006 22.6911C88.7516 23.2843 88.6249 23.9179 88.6249 24.5902C88.6249 25.2869 88.7547 25.9418 89.0152 26.5534L89.0154 26.5539C89.275 27.1572 89.6362 27.6918 90.0985 28.1569L90.0992 28.1576C90.5679 28.6227 91.1096 28.9873 91.7233 29.251ZM95.874 26.1067L95.874 26.1067L95.8733 26.1082C95.6633 26.5365 95.3674 26.8757 94.9848 27.129C94.6061 27.3737 94.1618 27.4983 93.6461 27.4983C93.1502 27.4983 92.6942 27.3743 92.2752 27.1262C91.86 26.8706 91.5237 26.5313 91.2656 26.1065C91.0158 25.6795 90.89 25.2027 90.89 24.6726C90.89 24.1479 91.0131 23.6733 91.2577 23.2456C91.5035 22.8159 91.836 22.4743 92.257 22.219C92.6756 21.9651 93.1375 21.8379 93.6461 21.8379C94.1614 21.8379 94.602 21.9653 94.9741 22.2152L94.974 22.2152L94.9763 22.2167C95.3587 22.464 95.6578 22.8004 95.874 23.2294C96.09 23.6582 96.1993 24.1383 96.1993 24.6726C96.1993 25.2006 96.0901 25.6777 95.874 26.1067Z" fill="#0063F7" stroke="#0063F7" stroke-width="0.3"/>
<path d="M99.738 21.0274C99.738 20.485 100.178 20.0453 100.72 20.0453C101.263 20.0453 101.702 20.485 101.702 21.0274V28.5066C101.702 29.049 101.263 29.4887 100.72 29.4887C100.178 29.4887 99.738 29.049 99.738 28.5066V21.0274ZM100.739 18.676C100.437 18.676 100.185 18.5784 99.9836 18.3832C99.7821 18.1881 99.6814 17.9425 99.6814 17.6466C99.6814 17.357 99.7821 17.1147 99.9836 16.9195C100.185 16.718 100.434 16.6173 100.73 16.6173C101.019 16.6173 101.265 16.718 101.466 16.9195C101.668 17.1147 101.768 17.357 101.768 17.6466C101.768 17.9425 101.668 18.1881 101.466 18.3832C101.271 18.5784 101.029 18.676 100.739 18.676Z" fill="#0063F7" stroke="#0063F7" stroke-width="0.3"/>
<path d="M111.328 28.1216V27.9766C110.529 28.985 109.39 29.489 107.911 29.4886C106.545 29.4886 105.389 28.9985 104.443 28.0183C103.497 27.038 103.025 25.8301 103.025 24.3946C103.025 22.959 103.497 21.7511 104.443 20.7709C105.389 19.7906 106.545 19.3007 107.913 19.3011C109.39 19.3011 110.529 19.8049 111.33 20.8126V14.8277C111.337 14.4701 111.485 14.1296 111.74 13.8792C111.996 13.6289 112.339 13.4886 112.697 13.4886C113.055 13.4886 113.398 13.6289 113.654 13.8792C113.909 14.1296 114.056 14.4701 114.064 14.8277V28.1216C114.056 28.4793 113.909 28.8198 113.654 29.0701C113.398 29.3205 113.055 29.4607 112.697 29.4607C112.339 29.4607 111.996 29.3205 111.74 29.0701C111.485 28.8198 111.337 28.4793 111.33 28.1216H111.328ZM110.459 26.279C110.997 25.7959 111.266 25.1677 111.266 24.3946C111.266 23.6214 111 22.9967 110.467 22.5205C109.934 22.0443 109.281 21.8062 108.51 21.8062C107.738 21.8062 107.086 22.0443 106.553 22.5205C106.02 22.9967 105.754 23.6214 105.754 24.3946C105.754 25.1677 106.02 25.7924 106.553 26.2687C107.086 26.7449 107.738 26.983 108.51 26.983C109.281 26.983 109.931 26.7483 110.459 26.279Z" fill="#0063F7"/>
<path d="M115.486 22.2562C115.486 21.4444 115.805 20.7802 116.443 20.2636C117.092 19.747 117.977 19.4886 119.096 19.4886C120.359 19.4886 121.467 19.8208 122.417 20.485C122.634 20.6572 122.736 20.8478 122.724 21.0569C122.712 21.2537 122.598 21.4444 122.381 21.6289L121.966 21.961C121.641 22.2193 121.274 22.2131 120.865 21.9425C120.432 21.6842 119.974 21.5551 119.493 21.5551C118.675 21.5551 118.266 21.7642 118.266 22.1824C118.266 22.4161 118.416 22.6252 118.717 22.8097C119.018 22.9942 119.577 23.2094 120.396 23.4554C122.345 24.0704 123.32 25.1037 123.32 26.5551C123.32 27.4284 122.983 28.1356 122.309 28.6768C121.647 29.218 120.708 29.4886 119.493 29.4886C117.941 29.4886 116.647 29.0643 115.612 28.2156C115.396 28.0311 115.299 27.8404 115.323 27.6436C115.347 27.4345 115.468 27.2439 115.684 27.0717L116.208 26.6842C116.557 26.4136 116.93 26.4259 117.327 26.7211C117.929 27.1885 118.566 27.4222 119.24 27.4222C120.107 27.4222 120.54 27.1762 120.54 26.6842C120.54 26.4259 120.408 26.2107 120.143 26.0385C119.89 25.854 119.403 25.6449 118.681 25.4112C117.55 25.0545 116.731 24.6301 116.226 24.1381C115.733 23.6338 115.486 23.0065 115.486 22.2562Z" fill="#0063F7"/>
<defs>
<linearGradient id="paint0_linear_135_964" x1="9.21972" y1="20.6505" x2="9.0159" y2="20.2412" gradientUnits="userSpaceOnUse">
<stop offset="0.14" stop-color="#0084D4"/>
<stop offset="0.59" stop-color="#00577F"/>
</linearGradient>
</defs>
</svg>
