<svg width="24" height="24" viewBox="0 0 24 24" fill="none" xmlns="http://www.w3.org/2000/svg">
<rect width="24" height="24" rx="12" fill="#C2DBFF"/>
<g clip-path="url(#clip0_207_11986)">
<path d="M10.6401 20.7233V20.7311C10.6249 20.7541 10.6107 20.7775 10.5956 20.8005C10.5643 20.8494 10.5315 20.8983 10.4978 20.9516C10.4866 20.9697 10.4743 20.9873 10.4626 21.0049C10.4626 20.9618 10.4626 20.9218 10.4626 20.8826C10.4411 19.9754 9.8716 19.8282 9.32508 18.7538C9.3065 18.7176 9.2889 18.6814 9.27033 18.6428C9.27033 18.6692 9.27033 18.6951 9.27033 18.722C9.27033 18.7376 9.27033 18.7528 9.27033 18.7709C9.27008 18.773 9.27008 18.7751 9.27033 18.7772C9.27033 18.7963 9.27033 18.8153 9.27473 18.8344C9.2851 18.9392 9.30573 19.0426 9.33632 19.1434C9.33632 19.1434 9.33632 19.1434 9.33632 19.1458C9.35343 19.201 9.37298 19.2573 9.39351 19.3145C9.38715 19.3097 9.38005 19.3061 9.3725 19.3037L9.3593 19.3013C8.78247 19.1795 8.48819 18.7249 8.23497 18.1407C8.19831 18.0576 8.16409 17.9721 8.12987 17.8846C8.12987 17.8817 8.12694 17.8782 8.10396 17.8753L8.12889 17.9481V18.7596C8.12889 18.7596 7.25778 16.7114 7.01629 16.0084C6.98047 15.9028 6.90513 15.8152 6.80609 15.764C6.6042 15.657 6.37836 15.547 6.13443 15.4008L6.09239 15.3754C5.47548 14.9961 4.96415 14.4613 4.54228 13.8766C4.33257 13.5858 4.15121 13.2758 3.94737 12.982C3.73619 12.679 3.52566 12.3739 3.31579 12.0669L3.08359 11.7277C3.07381 11.7125 3.02151 11.6104 3 11.6021C3.00978 11.6021 3.05328 11.6079 3.12416 11.6123C3.15828 11.6227 3.19331 11.6297 3.22878 11.6333C3.24882 11.6368 3.26935 11.6392 3.29086 11.6431L3.3593 11.6534C3.55483 11.6832 3.81343 11.7267 4.10184 11.7834L4.15464 11.7937L4.17517 11.7981L4.23236 11.8093C4.40492 11.8445 4.5853 11.8846 4.76568 11.9281L4.80235 11.9374L4.86345 11.9525H4.87029L4.93287 11.9682C5.17044 12.0293 5.40753 12.0982 5.63826 12.1813C5.85335 12.2595 5.90028 12.3622 6.01613 12.3353C6.08995 12.3182 6.17305 12.2605 6.19896 12.2864C6.20873 12.2962 6.20287 12.3094 6.2146 12.4008C6.2146 12.4169 6.21802 12.4253 6.219 12.4282C6.23513 12.5015 6.38814 12.5352 6.4116 12.5401C6.49079 12.5592 6.58954 12.6418 6.78996 12.8056C7.11455 13.0705 7.27196 13.5686 7.32768 13.9895C7.27618 14.4954 7.37758 15.0051 7.6188 15.4528C7.86001 15.9005 8.22995 16.2655 8.68079 16.5007C8.76536 16.5427 8.84895 16.5858 8.93059 16.6268L9.00782 16.6674C11.1201 17.7634 11.9017 18.5973 10.6401 20.7233Z" fill="#007CC4"/>
<path d="M21 4.50227C21 4.50227 19.338 6.5373 18.1877 6.40874L17.21 7.91045C17.2194 7.94473 17.2259 7.97972 17.2296 8.01506H17.2956C17.3102 8.01473 17.3245 8.01939 17.3362 8.02828C17.3478 8.03716 17.3561 8.04974 17.3596 8.06394C17.3621 8.07331 17.3624 8.08312 17.3605 8.09262C17.3585 8.10212 17.3545 8.11106 17.3486 8.11875C17.3427 8.12643 17.3351 8.13267 17.3264 8.13698C17.3178 8.1413 17.3082 8.14357 17.2985 8.14362H17.2364C17.2364 8.36116 17.1509 8.6701 16.7237 8.77911V8.83679C16.7238 8.85129 16.7191 8.86541 16.7102 8.87687C16.7014 8.88832 16.6888 8.89643 16.6748 8.89985C16.6654 8.90242 16.6555 8.90278 16.646 8.9009C16.6365 8.89903 16.6275 8.89498 16.6198 8.88906C16.6121 8.88315 16.6058 8.87553 16.6015 8.8668C16.5972 8.85807 16.595 8.84847 16.5951 8.83875V8.82017C16.5112 8.8316 16.4265 8.83667 16.3419 8.83533L14.5415 9.58325C14.4964 9.60238 14.4502 9.61871 14.4031 9.63213C12.8389 10.0672 12.9278 9.45126 12.0758 8.95069C12.0583 8.93811 12.0374 8.9311 12.0159 8.93057C11.9943 8.93005 11.9731 8.93604 11.955 8.94776C11.5082 9.24937 11.0966 10.3385 11.2975 10.7491C11.3357 10.8213 11.3569 10.9012 11.3596 10.9828C11.3596 11.1065 11.3479 11.2399 11.3494 11.3739C11.3503 11.405 11.3625 11.4348 11.3837 11.4576C11.4049 11.4805 11.4337 11.4948 11.4647 11.498C13.8947 11.7532 15.2014 12.4386 15.4405 13.0325C15.4575 13.0754 15.4685 13.1205 15.4732 13.1664C15.7206 15.2528 12.1613 17.4008 8.95064 16.5795C8.92913 16.5746 8.90908 16.5687 8.88806 16.5634C8.81963 16.5448 8.7507 16.5257 8.68275 16.5042C8.23208 16.2691 7.86226 15.9042 7.62105 15.4567C7.37985 15.0093 7.27834 14.4998 7.32965 13.994C7.33551 14.0367 7.3404 14.0783 7.34431 14.1187C7.34431 14.1324 7.34431 14.1451 7.34822 14.1583C7.34822 14.1798 7.35213 14.2018 7.35409 14.2238C7.36189 14.4027 7.38067 14.581 7.41031 14.7576C7.41422 14.7767 7.4191 14.7967 7.42399 14.8158C7.42427 14.8174 7.42427 14.819 7.42399 14.8207C7.42839 14.8368 7.4323 14.8529 7.43768 14.8695L7.44012 14.8764C7.44746 14.9018 7.45675 14.9282 7.46603 14.9536C7.47532 14.979 7.48265 14.9947 7.49243 15.0152C7.50221 15.0358 7.51101 15.0582 7.52176 15.0793C7.53985 15.1159 7.5594 15.1516 7.58091 15.1878C7.59069 15.2029 7.59998 15.2191 7.61073 15.2367C7.61904 15.2489 7.62686 15.2611 7.63566 15.2728C7.64446 15.2846 7.66206 15.309 7.67623 15.3266C7.69041 15.3442 7.71094 15.3696 7.72952 15.3902C7.76016 15.4246 7.7928 15.4573 7.82728 15.4879C7.84244 15.5006 7.85662 15.5133 7.87177 15.5241C7.88692 15.5349 7.90012 15.5466 7.91479 15.5573C8.028 15.6349 8.15389 15.6922 8.28679 15.7265C8.30097 15.7304 8.31515 15.7348 8.32981 15.7377C8.68422 15.8272 9.09729 15.815 9.41748 15.8008C11.4173 15.7113 12.7445 14.3377 13.1209 13.9192L13.1062 13.9227C12.4409 14.0918 9.6047 13.8083 8.77123 12.7529C8.64587 12.5925 8.57711 12.3952 8.5757 12.1917C8.5757 12.1814 8.5757 12.1707 8.5757 12.1609C8.5757 11.8431 8.71062 11.5142 8.8998 11.2595C9.08898 11.0048 9.34415 10.7633 9.53773 10.5057C9.86183 10.1635 9.94395 9.48499 9.61106 8.77618C9.57928 8.66717 9.54409 8.55913 9.50791 8.45159C9.4864 8.39049 9.4644 8.32889 9.44192 8.26876C9.43783 8.25687 9.43293 8.24528 9.42725 8.23406C9.42302 8.22484 9.41601 8.21716 9.40722 8.2121C9.39843 8.20704 9.38828 8.20484 9.37818 8.20581C9.36808 8.20678 9.35853 8.21086 9.35085 8.2175C9.34318 8.22414 9.33776 8.233 9.33535 8.24286C8.71404 9.89611 8.08392 10.9192 7.2089 11.7454L7.12287 11.8251C6.97931 12.0188 6.81669 12.1976 6.63745 12.3589C6.56119 12.4263 6.48542 12.4879 6.41161 12.5432C6.27074 12.6496 6.12204 12.7452 5.96677 12.8291C5.92424 12.8477 5.88757 12.8365 5.87926 12.8179C5.87095 12.7993 5.88855 12.7798 5.891 12.7763L6.17941 12.4146C5.99072 12.3344 5.7771 12.5182 5.37576 12.681C5.36929 12.6821 5.36263 12.6812 5.35675 12.6783C5.35086 12.6753 5.34607 12.6706 5.34307 12.6648C5.34006 12.6589 5.33901 12.6523 5.34005 12.6458C5.3411 12.6393 5.34419 12.6333 5.34887 12.6287L5.7023 12.2973L5.52388 12.3071C5.51991 12.3072 5.51601 12.306 5.51272 12.3038C5.50942 12.3016 5.5069 12.2984 5.5055 12.2947C5.5041 12.291 5.5039 12.287 5.50491 12.2831C5.50593 12.2793 5.50812 12.2759 5.51117 12.2733C5.55272 12.2401 5.59476 12.2103 5.63827 12.1819C5.90536 12.0161 6.20585 11.9114 6.51818 11.8754C6.57051 11.8691 6.62061 11.8505 6.66437 11.8211C6.70812 11.7917 6.7443 11.7523 6.76993 11.7063L6.78166 11.6848L6.79486 11.6613C6.8281 11.6056 6.86183 11.5469 6.89263 11.4858C7.62588 10.1562 8.40802 7.77064 8.47891 7.54871C8.44322 7.40743 8.40265 7.25003 8.40265 7.25003L8.67395 6.27235L9.61154 5.68379L10.1884 5.04439L11.1035 4.34242L11.7693 4.27496L12.1696 4.30624L12.1902 4.31504L12.1779 4.36686L12.1017 4.42992C12.1305 4.41337 12.1563 4.39205 12.1779 4.36686C12.1711 4.37712 12.1633 4.3869 12.1555 4.39668C12.1128 4.44495 12.0733 4.49589 12.0372 4.5492C11.965 4.67044 11.9283 4.80947 11.9311 4.95053C11.9323 5.02081 11.959 5.08824 12.0064 5.1402C12.0475 5.19698 12.0839 5.25697 12.1154 5.3196C12.1169 5.32307 12.1176 5.32688 12.1173 5.33068C12.117 5.33447 12.1158 5.33813 12.1137 5.34131C12.1116 5.34448 12.1087 5.34707 12.1053 5.34883C12.1019 5.35059 12.0982 5.35147 12.0944 5.35138H11.9506C11.937 5.35129 11.9239 5.35623 11.9137 5.36525C11.9035 5.37427 11.897 5.38674 11.8954 5.40026L11.8822 5.54251C11.8822 5.54251 11.9018 5.65641 11.867 5.69943C11.8323 5.74245 11.7693 5.74049 11.7302 5.77325C11.6593 5.83044 11.692 5.94923 11.6471 6.02793C11.6261 6.05787 11.5972 6.08135 11.5636 6.09569C11.53 6.11003 11.493 6.11467 11.4569 6.10908C11.3849 6.09649 11.3149 6.07447 11.2487 6.04357C11.1122 5.99193 10.9674 5.96575 10.8214 5.96634C10.7491 6.51139 10.8757 6.75777 11.0052 6.88193C11.1475 7.01734 11.3215 7.05693 11.7409 7.34926C12.0494 7.56435 12.0929 7.70025 12.5514 8.21157C12.7201 8.40026 12.8936 8.58358 13.0759 8.76102C13.204 8.88763 13.3204 8.98051 13.51 8.98393C13.7144 8.98736 13.9226 8.91501 14.1265 8.89301C14.3513 8.86857 14.5772 8.84706 14.8025 8.82017C15.0279 8.79329 15.2425 8.76445 15.4585 8.72241C15.5705 8.70041 15.6824 8.67352 15.7929 8.64517C15.8305 8.6349 16.0931 8.58162 16.1014 8.5474C16.2353 7.98426 16.5076 7.79655 16.9813 7.71638L18.0117 6.26697C17.6696 5.22575 17.4686 4.29304 17.6353 3.79492C17.6406 3.77931 17.6509 3.76588 17.6646 3.75671C17.6782 3.74754 17.6946 3.74315 17.711 3.74421C17.7274 3.74527 17.7431 3.75172 17.7555 3.76257C17.7679 3.77342 17.7763 3.78805 17.7795 3.80421C17.9096 5.62855 19.1043 4.69389 18.6047 3.22787C18.6017 3.21404 18.6028 3.19965 18.6079 3.18644C18.6129 3.17323 18.6217 3.16178 18.6332 3.15349C18.6446 3.14519 18.6583 3.14041 18.6724 3.13973C18.6865 3.13905 18.7005 3.1425 18.7127 3.14965L21 4.50227Z" fill="#007CC4"/>
<path d="M5.37135 11.9756L5.35815 11.98L5.3782 11.9731L5.37135 11.9756Z" fill="#007CC4"/>
<path d="M9.27425 18.7676L9.27718 18.7749L9.24297 18.7695H9.23026L9.27425 18.7676Z" fill="#007CC4"/>
<path d="M9.28156 18.7676H9.27423V18.7612L9.28156 18.7676Z" fill="#007CC4"/>
<path d="M6.79436 11.6626L6.78116 11.6861C6.78556 11.6782 6.78996 11.6709 6.79436 11.6626Z" fill="#007CC4"/>
<path d="M12.176 4.37311C12.1404 4.41536 12.0937 4.44671 12.0411 4.46355C11.9643 4.48799 11.8988 4.46355 11.8201 4.45719C11.7128 4.4498 11.6049 4.4592 11.5004 4.48506C11.3027 4.5404 11.112 4.61814 10.9319 4.71677C10.599 4.88199 10.2739 5.09464 10.0349 5.38354C9.91466 5.5293 9.81135 5.68821 9.72691 5.85723C9.66434 5.98041 9.55729 6.13635 9.43361 6.20479C9.38473 6.23168 9.33584 6.25367 9.28696 6.27616C8.89882 6.45312 8.70964 6.79237 8.58401 7.18296C8.51997 7.38093 8.55126 7.35698 8.50237 7.49092C8.49651 7.50754 8.48771 7.53003 8.47695 7.55692C8.36799 7.82895 8.1774 8.06052 7.93141 8.21978C7.78769 8.30973 7.41373 8.54388 7.02168 8.39234C6.83516 8.31436 6.68118 8.17454 6.58564 7.99638C6.66532 8.02718 7.17225 8.22027 7.35849 8.01985C7.58091 7.77885 7.42595 7.05977 6.90045 6.96347C6.49911 6.85201 5.7375 7.20642 5.45545 8.26084C5.45763 8.24315 5.45763 8.22525 5.45545 8.20756C5.44469 7.68255 5.41341 7.15363 5.4178 6.6291C5.4222 6.15297 5.8734 5.66071 6.31042 5.51699C5.43785 5.3151 4.88057 5.99166 4.83853 6.06792C5.06144 4.46159 6.13835 4.77738 7.60878 4.8688C7.4929 4.72566 7.40396 4.56268 7.34627 4.38778C7.29412 4.2358 7.27317 4.07485 7.28468 3.91458C7.50319 4.19322 7.83511 4.51928 8.23889 4.51928C9.02445 4.51928 9.2239 3.37686 10.2431 3.05276C11.017 2.84843 12.0054 3.19892 12.2043 3.78357C12.2275 3.83876 12.2439 3.89653 12.2532 3.95565C12.2535 3.95644 12.2535 3.95729 12.2532 3.95809L12.2601 4.01186C12.2747 4.14434 12.2532 4.28072 12.176 4.37311Z" fill="#007CC4"/>
<path d="M13.1258 13.9094L13.1111 13.9251C13.0334 14.0111 12.9195 14.1328 12.7719 14.2721C9.65212 14.5992 8.33519 13.3751 8.59134 11.9922C8.58398 12.0461 8.58023 12.1005 8.5801 12.155V12.1633C8.5801 12.1731 8.5801 12.1838 8.5801 12.1941C8.58386 12.3935 8.6525 12.5862 8.77563 12.743C9.61546 13.8063 12.4879 14.0859 13.1258 13.9094Z" fill="#007CC4"/>
<path d="M6.89458 11.4878C6.86085 11.5484 6.82761 11.6071 6.79681 11.6628L6.89458 11.4863V11.4878Z" fill="#007CC4"/>
<path d="M6.19262 12.3992C6.19736 12.3924 6.2003 12.3846 6.20116 12.3763C6.20203 12.3681 6.20079 12.3598 6.19757 12.3522C6.19434 12.3445 6.18924 12.3379 6.18273 12.3328C6.17622 12.3276 6.16852 12.3243 6.16035 12.323C6.12775 12.3199 6.09489 12.3211 6.06259 12.3264C6.04605 12.3288 6.02971 12.3324 6.0137 12.3371C6.06845 12.3621 6.1232 12.386 6.17697 12.4158L6.19262 12.3992Z" fill="#007CC4"/>
<path d="M12.176 4.36719L12.0992 4.43074C12.1283 4.41417 12.1543 4.39267 12.176 4.36719Z" fill="#007CC4"/>
<path d="M6.41159 12.5444C6.49078 12.5635 6.58953 12.6461 6.78995 12.8099C6.67033 12.7125 6.54389 12.6238 6.41159 12.5444Z" fill="#007CC4"/>
<path d="M13.1111 13.9251C13.0334 14.0111 12.9195 14.1328 12.7719 14.2721C9.65212 14.5992 8.33519 13.3751 8.59134 11.9922C8.58398 12.0461 8.58023 12.1005 8.5801 12.155V12.1633C8.5801 12.1731 8.5801 12.1838 8.5801 12.1941C8.58151 12.3976 8.65027 12.5949 8.77563 12.7553C9.60959 13.8107 12.4458 14.0942 13.1111 13.9251Z" fill="#007CC4"/>
</g>
<defs>
<clipPath id="clip0_207_11986">
<rect width="18" height="18.0098" fill="white" transform="translate(3 2.99512)"/>
</clipPath>
</defs>
</svg>
