<svg width="22" height="22" viewBox="0 0 22 22" fill="none" xmlns="http://www.w3.org/2000/svg">
<path d="M21 16.3846V19.4615C21 19.8696 20.8379 20.2609 20.5494 20.5494C20.2609 20.8379 19.8696 21 19.4615 21H16.3846M16.3846 1H19.4615C19.8696 1 20.2609 1.16209 20.5494 1.4506C20.8379 1.73912 21 2.13044 21 2.53846V5.61538M1 5.61538V2.53846C1 2.13044 1.16209 1.73912 1.4506 1.4506C1.73912 1.16209 2.13044 1 2.53846 1H5.61538M5.61538 21H2.53846C2.13044 21 1.73912 20.8379 1.4506 20.5494C1.16209 20.2609 1 19.8696 1 19.4615V16.3846M11 10.2308C11.8161 10.2308 12.5987 9.90659 13.1757 9.32956C13.7527 8.75252 14.0769 7.9699 14.0769 7.15385C14.0769 6.3378 13.7527 5.55517 13.1757 4.97813C12.5987 4.4011 11.8161 4.07692 11 4.07692C10.1839 4.07692 9.40132 4.4011 8.82429 4.97813C8.24725 5.55517 7.92308 6.3378 7.92308 7.15385C7.92308 7.9699 8.24725 8.75252 8.82429 9.32956C9.40132 9.90659 10.1839 10.2308 11 10.2308ZM16.8508 17.1538C16.4531 15.9146 15.6723 14.8337 14.6208 14.0668C13.5693 13.2999 12.3014 12.8867 11 12.8867C9.69855 12.8867 8.43071 13.2999 7.37922 14.0668C6.32772 14.8337 5.54688 15.9146 5.14923 17.1538H16.8508Z" stroke="black" stroke-width="1.5" stroke-linecap="round" stroke-linejoin="round"/>
</svg>
